<svg width="588" height="212" viewBox="0 0 588 212" fill="none" xmlns="http://www.w3.org/2000/svg">
<rect x="0.5" y="0.5" width="587" height="211" fill="#F5F5F5" stroke="black" stroke-dasharray="4 4"/>
<path d="M261.66 117.631L278.772 101.225C279.465 100.561 280.288 100.034 281.193 99.6739C282.099 99.3144 283.069 99.1293 284.049 99.1293C285.029 99.1293 286 99.3144 286.905 99.6739C287.811 100.034 288.634 100.561 289.327 101.225L306.439 117.631M301.463 112.861L306.137 108.38C306.83 107.716 307.653 107.189 308.558 106.829C309.463 106.469 310.434 106.284 311.414 106.284C312.394 106.284 313.365 106.469 314.27 106.829C315.175 107.189 315.998 107.716 316.691 108.38L326.34 117.631M266.636 129.556H321.365C322.684 129.556 323.95 129.053 324.883 128.158C325.816 127.264 326.34 126.051 326.34 124.786V86.6256C326.34 85.3605 325.816 84.1472 324.883 83.2527C323.95 82.3581 322.684 81.8556 321.365 81.8556H266.636C265.316 81.8556 264.05 82.3581 263.117 83.2527C262.184 84.1472 261.66 85.3605 261.66 86.6256V124.786C261.66 126.051 262.184 127.264 263.117 128.158C264.05 129.053 265.316 129.556 266.636 129.556ZM301.463 93.7806H301.49V93.806H301.463V93.7806ZM302.707 93.7806C302.707 94.0969 302.576 94.4002 302.343 94.6238C302.109 94.8475 301.793 94.9731 301.463 94.9731C301.133 94.9731 300.817 94.8475 300.584 94.6238C300.35 94.4002 300.219 94.0969 300.219 93.7806C300.219 93.4643 300.35 93.161 300.584 92.9374C300.817 92.7137 301.133 92.5881 301.463 92.5881C301.793 92.5881 302.109 92.7137 302.343 92.9374C302.576 93.161 302.707 93.4643 302.707 93.7806Z" stroke="black" stroke-width="2" stroke-linecap="round" stroke-linejoin="round"/>
</svg>
