<svg width="264" height="264" viewBox="0 0 264 264" fill="none" xmlns="http://www.w3.org/2000/svg">
<rect x="0.763006" y="0.763006" width="262.474" height="262.474" fill="#F5F5F5"/>
<rect x="0.763006" y="0.763006" width="262.474" height="262.474" stroke="black" stroke-width="1.52601" stroke-dasharray="6.1 6.1"/>
<path d="M98 143.913L115.764 126.069C116.483 125.346 117.338 124.773 118.277 124.381C119.217 123.99 120.225 123.789 121.242 123.789C122.26 123.789 123.267 123.99 124.207 124.381C125.147 124.773 126.001 125.346 126.721 126.069L144.485 143.913M139.32 138.725L144.171 133.851C144.891 133.128 145.745 132.555 146.685 132.164C147.625 131.773 148.632 131.572 149.65 131.572C150.667 131.572 151.674 131.773 152.614 132.164C153.554 132.555 154.409 133.128 155.128 133.851L165.145 143.913M103.165 156.884H159.98C161.349 156.884 162.663 156.338 163.632 155.365C164.6 154.392 165.145 153.072 165.145 151.696V110.188C165.145 108.812 164.6 107.493 163.632 106.52C162.663 105.547 161.349 105 159.98 105H103.165C101.795 105 100.481 105.547 99.5128 106.52C98.5442 107.493 98 108.812 98 110.188V151.696C98 153.072 98.5442 154.392 99.5128 155.365C100.481 156.338 101.795 156.884 103.165 156.884ZM139.32 117.971H139.347V117.999H139.32V117.971ZM140.611 117.971C140.611 118.315 140.475 118.645 140.233 118.888C139.991 119.132 139.662 119.268 139.32 119.268C138.977 119.268 138.649 119.132 138.407 118.888C138.164 118.645 138.028 118.315 138.028 117.971C138.028 117.627 138.164 117.297 138.407 117.054C138.649 116.811 138.977 116.674 139.32 116.674C139.662 116.674 139.991 116.811 140.233 117.054C140.475 117.297 140.611 117.627 140.611 117.971Z" stroke="black" stroke-width="1.87817" stroke-linecap="round" stroke-linejoin="round"/>
</svg>
